<?xml version="1.0" encoding="UTF-8"?>
<svg id="Layer_2" data-name="Layer 2" xmlns="http://www.w3.org/2000/svg" viewBox="0 0 271.11 178.91">
  <defs>
    <style>
      .cls-1 {
        fill: #36575c;
        stroke-width: 0px;
      }
    </style>
  </defs>
  <g id="Layer_1-2" data-name="Layer 1">
    <g>
      <g>
        <path class="cls-1" d="m.44,158.83c0-7.64-.29-10.92-.44-11.95.44.05,1.42.1,2.15.1,1.13,0,3.82-.2,6.76-.2,5.78,0,11.9.78,16.21,4.95,2.15,2.15,4.11,5.53,4.11,10.67s-2.15,9.01-4.55,11.46c-2.2,2.06-6.22,4.85-13.71,4.85-1.81,0-3.48-.1-4.99-.2-2.15-.2-3.82-.44-5.83-.29.1-1.71.29-5.53.29-11.75v-7.64Zm4.02,6.07c0,4.46.05,7.74.1,8.86,0,.98.1,1.27.25,1.42.69.44,3.13.98,6.56.98s6.81-.78,9.25-2.84c2.35-2.01,4.21-5.58,4.21-10.09,0-3.48-.83-6.66-2.99-9.3-2.89-3.43-7.83-4.75-13.22-4.75-1.62,0-3.28.1-3.87.29-.15.05-.2.15-.2.29-.05.83-.1,4.65-.1,8.86v6.27Z"/>
        <path class="cls-1" d="m51.31,158.88c0-6.76-.2-10.82-.49-12,.59.1,1.81.1,2.79.1h9.7c.93,0,2.69-.05,3.48-.24-.1.73-.29,2.25-.29,3.72-.59-.34-1.47-.54-3.57-.73-1.37-.05-3.92-.15-7.44-.15-.05,0-.15,0-.15.15v10.38c0,.15.05.25.15.25.64,0,5.58,0,6.85-.05,2.3-.1,3.28-.2,3.77-.34-.24.98-.39,2.84-.39,3.72-.59-.29-1.32-.49-2.99-.64-1.47-.1-6.41-.15-7.25-.15-.1,0-.15.1-.15.2v2.79c0,8.08.1,9.21.29,9.4.15.1.54.2.93.24,1.03.1,2.4.2,4.26.2,3.97,0,5.92-.29,7.2-.83-.34.93-.73,2.55-.88,3.43-.15.05-.64.1-2.25.1-5.92,0-9.21-.25-11.02-.25-1.32,0-2.4.05-2.94.1.15-1.47.39-6.17.39-12.04v-7.34Z"/>
        <path class="cls-1" d="m85.78,172.74c1.27,1.62,3.97,3.38,7.3,3.38,3.97,0,5.97-2.4,5.97-5.34,0-2.5-.88-4.11-4.55-6.46l-2.15-1.37c-4.55-2.94-5.73-5.68-5.73-8.62,0-4.41,3.48-8.08,9.5-8.08,1.67,0,3.23.2,4.21.39,1.18.2,1.91.29,2.25.34-.15.44-.39,2.74-.39,4.31-.78-.98-2.89-2.4-6.32-2.4-3.18,0-5.34,1.81-5.34,4.55,0,2.15.54,3.67,4.36,6.17l2.11,1.32c5.19,3.28,6.22,5.78,6.22,9.01,0,1.86-.93,5.14-3.92,7.2-1.96,1.27-4.55,1.71-6.71,1.71-2.79,0-5.68-.73-7.15-1.71.15-.64.39-3.13.34-4.41Z"/>
        <path class="cls-1" d="m125,158.88c0-5.92-.15-10.87-.44-11.95.44.05,1.37.05,2.01.05,1.37,0,2.45-.1,2.79-.15-.1,1.52-.29,6.17-.29,12.05v7.34c0,5.24.1,10.82.39,12.04-.39-.05-1.32-.1-2.06-.1-.98,0-2.3.1-2.74.15.2-1.47.34-6.71.34-12.09v-7.34Z"/>
        <path class="cls-1" d="m180.48,173.96v3.08c-2.79,1.22-7.05,1.81-10.82,1.81-5.78,0-10.97-1.76-14.35-5.44-2.4-2.5-4.21-6.32-4.21-11.07,0-6.86,3.48-10.82,6.71-12.98,4.16-2.84,9.35-3.13,12.44-3.13,5.29,0,9.55,1.52,10.62,1.71-.2.69-.54,2.84-.54,4.46-.98-1.22-4.8-3.48-11.41-3.48-3.38,0-6.71.88-9.16,2.99-2.3,2.01-4.11,5.34-4.11,9.55,0,8.86,5.34,14.59,14.98,14.59,1.91,0,4.31-.2,5.63-.98.1-.1.15-.34.15-1.17v-5.04c0-2.35-.25-5.24-.49-6.12.59.05,1.52.05,2.25.05,1.32,0,2.06-.05,2.55-.15-.1,1.03-.25,4.21-.25,7.2v4.11Z"/>
        <path class="cls-1" d="m206.28,178.17c-.44,0-2.01.1-2.25.15.29-3.53.44-22.23.44-29.62,0-2.25.1-2.45.39-2.45.2,0,.54.34,1.42,1.18,4.21,4.16,18.51,20.27,22.43,23.45-.05-6.27-.2-19.44-.54-23.99.34.05,1.17.1,1.76.1.93,0,2.11-.1,2.4-.15-.25,2.5-.49,13.17-.54,21.1,0,2.69.05,6.76.05,8.52,0,2.2-.1,2.45-.34,2.45-.29,0-.88-.49-3.62-3.13-3.72-3.48-16.06-17.48-20.17-21.84.05,8.86.15,21.06.54,24.34-.64-.1-1.32-.1-1.96-.1Z"/>
        <path class="cls-1" d="m253.67,172.74c1.27,1.62,3.97,3.38,7.3,3.38,3.97,0,5.97-2.4,5.97-5.34,0-2.5-.88-4.11-4.55-6.46l-2.15-1.37c-4.55-2.94-5.73-5.68-5.73-8.62,0-4.41,3.48-8.08,9.5-8.08,1.67,0,3.23.2,4.21.39,1.18.2,1.91.29,2.25.34-.15.44-.39,2.74-.39,4.31-.78-.98-2.89-2.4-6.32-2.4-3.18,0-5.34,1.81-5.34,4.55,0,2.15.54,3.67,4.36,6.17l2.11,1.32c5.19,3.28,6.22,5.78,6.22,9.01,0,1.86-.93,5.14-3.92,7.2-1.96,1.27-4.55,1.71-6.71,1.71-2.79,0-5.68-.73-7.15-1.71.15-.64.39-3.13.34-4.41Z"/>
      </g>
      <g>
        <path class="cls-1" d="m142.23,63.77c1.43-.18,2.86-.29,4.31-.29.36,0,.7.04,1.06.05-11.34-27.82-23.31-56.31-24.24-58.85-1.28-3.55-1.7-4.69-2.41-4.69-.57,0-1.14,1.85-2.13,4.69l-27.84,74.13c-3.83,10.65-8.38,22.87-11.79,30.39.71-.14,2.98-.28,3.69-.28,1.42,0,1.7,0,2.56.14,1.7-6.68,10.51-30.53,15.48-45.02.14-.28.14-.43.57-.43h40.33c.24,0,.35.05.42.15Zm-1.84-3.98h-37.64c-.28,0-.43-.14-.28-.43l18.32-49.42,20.02,49.42c.14.28,0,.43-.43.43Z"/>
        <path class="cls-1" d="m138.1,116.19c2.84,3.63,11.08,7.26,21.59,7.26,15.91,0,23.29-8.51,23.29-19.07,0-8.97-3.69-14.3-17.18-21.57l-6.82-3.75c-13.78-7.49-17.61-14.3-17.61-21.91,0-10.67,9.66-19.64,27.41-19.64,5.11,0,9.8.68,12.78,1.25,1.99.34,4.12.68,5.11.79-.43,1.02-1.14,4.88-1.14,5.9-2.42-2.61-7.95-5.22-18.18-5.22-11.93,0-21.02,6.13-21.02,15.66,0,7.49,2.27,12.6,17.75,21l6.11,3.29c16.19,8.74,18.04,16,18.04,23.5,0,3.29-1.14,12.15-10.51,17.93-5.25,3.18-11.93,4.88-19.74,4.88-8.8,0-16.9-2.16-20.59-4.43.28-1.13.85-5.11.71-5.9Z"/>
        <path class="cls-1" d="m164.38,89.89c2.92,3.38,3.08,7.19,9.91,9.41,6.84,2.22,12.55,1.47,12.55,1.47,0,0-1.18-2.42-8.18-7.08-7-4.66-14.28-3.8-14.28-3.8Z"/>
        <path class="cls-1" d="m168.07,65.33c3.58,3,8.35,3.05,9.54,10.24,1.19,7.19-1.12,13.28-1.12,13.28,0,0-2.77-1.18-7-8.47-4.23-7.29-1.41-15.05-1.41-15.05Z"/>
        <path class="cls-1" d="m137.76,76.88c3.77,2.92,4.79,7.38,12.34,7.48,7.54.1,13.25-2.92,13.25-2.92,0,0-1.76-2.43-10.02-5.36-8.26-2.93-15.57.8-15.57.8Z"/>
      </g>
    </g>
  </g>
</svg>